<svg width="1024" height="1024" viewBox="0 0 1024 1024" fill="none" xmlns="http://www.w3.org/2000/svg">
<rect width="1024" height="1024" fill="white"/>
<rect x="221" y="367" width="584" height="439" fill="#007AFF"/>
<rect x="227" y="225" width="571" height="142" fill="#FF3B30"/>
<rect x="338" y="164" width="49" height="124" fill="#FF3B30"/>
<rect x="637" y="164" width="49" height="124" fill="#FF3B30"/>
<g clip-path="url(#clip0_1_3040)">
<path d="M576.27 754.942C579.764 756.989 580.894 760.981 578.633 764.665L560.548 795.985C558.493 799.464 554.383 800.693 550.888 798.748C547.292 796.702 546.367 792.709 548.422 789.23L566.611 757.706C568.871 754.123 572.776 752.998 576.27 754.942Z" fill="black"/>
<path d="M534.653 717.789C538.147 719.836 539.277 723.929 537.017 727.512L518.931 758.831C516.876 762.414 512.765 763.539 509.271 761.595C505.674 759.548 504.75 755.556 506.702 752.077L524.994 720.552C527.254 716.97 531.159 715.843 534.653 717.789Z" fill="black"/>
<path d="M470.736 755.045C474.231 757.092 475.361 761.083 473.203 764.768L455.015 796.088C452.96 799.567 448.85 800.795 445.355 798.851C441.861 796.803 440.834 792.812 442.889 789.333L461.18 757.807C463.338 754.225 467.243 753.1 470.736 755.045Z" fill="black"/>
<path d="M429.119 717.891C432.613 719.939 433.744 724.032 431.586 727.615L413.397 758.935C411.342 762.517 407.232 763.642 403.738 761.697C400.141 759.65 399.217 755.659 401.272 752.281L419.563 720.654C421.721 717.072 425.626 715.947 429.119 717.891Z" fill="black"/>
<path d="M683.241 628.026L705.336 650.032C709.034 653.717 708.931 659.55 705.336 663.133C701.636 666.715 695.778 666.92 692.182 663.235L669.986 641.23C666.39 637.648 666.39 631.711 669.986 628.026C673.685 624.649 679.645 624.547 683.241 628.026ZM673.48 567.025C673.48 595.992 654.067 620.67 627.611 628.771C627.45 622.961 626.44 617.418 624.749 612.195C643.486 605.741 656.73 588.104 656.73 567.025C656.73 540.311 635.459 519.125 608.742 519.125C582.024 519.125 560.753 540.311 560.753 567.025C560.753 567.201 560.754 567.377 560.78 567.546C560.105 567.458 559.403 567.442 558.698 567.435C555.204 560.887 551.12 554.891 546.482 549.565C554.109 522.365 579.231 502.339 608.742 502.339C644.297 502.339 673.48 531.407 673.48 567.025ZM745 567.025C745 572.143 740.787 576.339 735.649 576.339H704.719C699.683 576.339 695.368 572.143 695.368 567.025C695.368 562.01 699.683 557.711 704.719 557.711H735.649C740.787 557.711 745 562.01 745 567.025ZM705.336 470.917C708.931 474.499 709.034 480.538 705.336 484.223L683.345 506.024C679.645 509.811 673.685 509.606 669.986 506.024C666.39 502.441 666.39 496.505 669.986 492.923L692.182 470.917C695.778 467.232 701.636 467.335 705.336 470.917ZM525.404 470.917L547.498 492.923C550.992 496.403 550.992 502.544 547.395 506.024C543.695 509.606 537.735 509.708 534.139 506.024L512.149 484.12C508.552 480.538 508.757 474.499 512.251 470.917C515.951 467.335 521.807 467.335 525.404 470.917ZM618.196 440.314V471.326C618.196 476.239 613.879 480.436 608.844 480.436C603.809 480.436 599.391 476.239 599.391 471.326V440.314C599.391 435.299 603.809 431 608.844 431C613.879 431 618.196 435.299 618.196 440.314Z" fill="#FCD35C"/>
<ellipse cx="607" cy="566.5" rx="51" ry="49.5" fill="#FCD35C"/>
<g filter="url(#filter0_d_1_3040)">
<path d="M417.079 696.351H561.044C598.859 696.351 628.248 667.898 628.248 631.359C628.248 595.126 598.448 567.695 559.194 567.287C543.678 538.218 516.549 520 483.358 520C439.994 520 403.823 553.879 399.61 597.173C377.517 603.723 362 622.352 362 646.404C362 675.164 383.785 696.351 417.079 696.351Z" fill="white"/>
<path d="M483.358 519.5C516.654 519.5 543.877 537.73 559.493 566.79C598.834 567.335 628.748 594.902 628.748 631.358C628.748 668.189 599.119 696.852 561.044 696.852H417.079C400.325 696.852 386.428 691.519 376.715 682.529C366.999 673.538 361.5 660.916 361.5 646.404C361.5 622.229 377.03 603.484 399.146 596.791C403.535 553.409 439.839 519.5 483.358 519.5Z" stroke="black"/>
</g>
<g filter="url(#filter1_d_1_3040)">
<path d="M416.583 696.499H560.548C598.363 696.499 627.752 668.046 627.752 631.507C627.752 595.274 597.952 567.843 558.698 567.435C543.182 538.366 516.054 520.148 482.863 520.148C439.498 520.148 403.327 554.026 399.114 597.32C377.021 603.871 361.504 622.5 361.504 646.552C361.504 675.312 383.289 696.499 416.583 696.499ZM416.172 678.281C392.434 678.281 379.795 664.464 379.795 646.962C379.795 631.814 389.044 618.917 408.773 613.595C414.63 612.06 416.686 609.5 417.199 603.667C420.179 566.206 448.85 538.264 482.863 538.264C510.196 538.264 530.85 553.719 543.285 578.386C545.853 583.401 548.833 585.141 554.896 585.141C588.909 585.141 609.564 606.43 609.564 632.121C609.564 657.709 588.293 678.281 560.856 678.281H416.172Z" fill="black"/>
<path d="M482.863 519.648C516.158 519.648 543.381 537.878 558.997 566.938C598.339 567.483 628.252 595.05 628.252 631.506C628.252 668.337 598.623 696.999 560.548 697H416.583C399.829 697 385.932 691.667 376.219 682.677C366.503 673.686 361.004 661.064 361.004 646.552C361.004 622.377 376.534 603.632 398.65 596.939C403.039 553.557 439.343 519.648 482.863 519.648ZM482.863 538.764C449.141 538.764 420.659 566.474 417.698 603.707V603.71C417.437 606.671 416.779 608.889 415.373 610.564C413.968 612.239 411.874 613.297 408.903 614.077L408.904 614.078C399.118 616.717 391.97 621.225 387.271 626.913C382.573 632.598 380.295 639.494 380.295 646.961C380.295 655.588 383.408 663.279 389.421 668.817C395.437 674.356 404.4 677.782 416.172 677.782H560.857C588.039 677.782 609.064 657.41 609.064 632.121C609.064 606.752 588.681 585.641 554.897 585.641C551.823 585.641 549.461 585.201 547.529 584.076C545.592 582.948 544.149 581.169 542.84 578.614L542.838 578.611C530.471 554.077 509.97 538.764 482.863 538.764Z" stroke="black"/>
</g>
</g>
<path d="M612.862 183.983C613.115 150.941 634.302 130.51 666.083 133.537C690.045 135.807 705.936 155.986 706.188 183.731V198.108L738.475 198.865C767.481 199.874 771.769 200.631 784.885 206.936C801.028 215.008 812.883 227.115 820.702 243.763C825.999 255.365 825.999 256.375 825.999 513.904V772.443L819.945 784.551C810.613 803.72 793.713 820.368 774.796 829.7L757.896 838.024H266.042L251.664 831.214C223.666 818.098 205.002 794.387 199.2 764.876C197.182 754.029 196.677 679.872 197.182 503.815L197.938 257.888L205.001 243.511C213.072 227.116 227.702 212.991 244.35 205.424C253.43 201.388 262.762 199.875 286.977 199.118L317.749 198.108V184.236C317.749 161.283 326.325 145.897 344.233 137.825C362.646 129.249 386.609 133.537 398.969 147.41C406.283 155.482 411.075 170.111 411.075 184.74V198.613H612.862V183.983ZM234.513 390.311V576.206C234.513 752.012 234.765 762.859 239.305 772.443C241.827 777.992 247.124 785.559 251.16 789.343C267.555 804.729 255.196 803.973 512.474 803.973C735.447 803.973 748.312 803.72 757.896 799.18C770.76 793.378 781.354 782.785 787.155 769.921C791.443 760.336 791.947 748.985 791.947 574.945V390.311H234.513ZM511.465 236.448C426.967 236.448 410.823 236.953 411.832 239.979C412.589 241.745 412.336 251.078 411.075 260.158C407.544 288.913 391.653 304.551 365.926 304.551C335.658 304.551 317.749 283.615 317.749 248.303V236.448L289.499 236.7C257.97 236.952 255.953 237.205 247.629 245.024C235.522 255.618 234.513 261.167 234.513 308.082V352.476L513.23 352.979L791.947 353.736V310.604C791.947 270.752 791.443 266.716 786.146 256.627C777.318 239.98 768.49 236.448 734.943 236.448H706.945L705.684 255.113C703.666 286.895 689.288 302.533 660.786 304.047C641.869 305.056 633.041 300.768 621.438 285.382C615.133 277.31 614.123 273.274 613.114 256.122L612.357 236.448H511.465ZM371.727 172.129C366.935 167.336 362.899 167.337 356.594 171.877C352.054 175.156 351.801 178.939 351.801 221.314C351.801 263.689 352.054 267.473 356.594 270.752C362.899 275.292 365.926 275.292 372.231 270.752C376.519 267.473 377.025 263.437 377.781 234.935C378.79 197.1 377.024 177.426 371.727 172.129ZM668.857 174.398C665.074 168.345 656.246 167.841 650.949 173.138C645.905 178.182 645.652 181.462 645.652 221.314C645.652 260.915 646.157 264.698 650.697 269.238C656.751 275.292 661.543 275.544 666.84 270.247C670.119 266.968 670.876 258.896 670.876 221.818C670.876 197.352 669.866 175.912 668.857 174.398Z" fill="black"/>
<defs>
<filter id="filter0_d_1_3040" x="357" y="519" width="276.248" height="186.351" filterUnits="userSpaceOnUse" color-interpolation-filters="sRGB">
<feFlood flood-opacity="0" result="BackgroundImageFix"/>
<feColorMatrix in="SourceAlpha" type="matrix" values="0 0 0 0 0 0 0 0 0 0 0 0 0 0 0 0 0 0 127 0" result="hardAlpha"/>
<feOffset dy="4"/>
<feGaussianBlur stdDeviation="2"/>
<feComposite in2="hardAlpha" operator="out"/>
<feColorMatrix type="matrix" values="0 0 0 0 0 0 0 0 0 0 0 0 0 0 0 0 0 0 0.25 0"/>
<feBlend mode="normal" in2="BackgroundImageFix" result="effect1_dropShadow_1_3040"/>
<feBlend mode="normal" in="SourceGraphic" in2="effect1_dropShadow_1_3040" result="shape"/>
</filter>
<filter id="filter1_d_1_3040" x="356.504" y="519.148" width="276.248" height="186.351" filterUnits="userSpaceOnUse" color-interpolation-filters="sRGB">
<feFlood flood-opacity="0" result="BackgroundImageFix"/>
<feColorMatrix in="SourceAlpha" type="matrix" values="0 0 0 0 0 0 0 0 0 0 0 0 0 0 0 0 0 0 127 0" result="hardAlpha"/>
<feOffset dy="4"/>
<feGaussianBlur stdDeviation="2"/>
<feComposite in2="hardAlpha" operator="out"/>
<feColorMatrix type="matrix" values="0 0 0 0 0 0 0 0 0 0 0 0 0 0 0 0 0 0 0.25 0"/>
<feBlend mode="normal" in2="BackgroundImageFix" result="effect1_dropShadow_1_3040"/>
<feBlend mode="normal" in="SourceGraphic" in2="effect1_dropShadow_1_3040" result="shape"/>
</filter>
<clipPath id="clip0_1_3040">
<rect width="406" height="370" fill="white" transform="translate(339 431)"/>
</clipPath>
</defs>
</svg>
