<svg width="512" height="512" viewBox="0 0 512 512" fill="none" xmlns="http://www.w3.org/2000/svg">
<rect width="512" height="512" fill="white"/>
<path d="M85.5902 186.698C88.1982 186.298 90.6138 185.059 92.4869 183.161C94.36 181.262 95.5932 178.803 96.0077 176.14C106.176 110.517 152.723 71 207 71C257.404 71 290.986 104.756 304.334 140.328C305.119 142.439 306.436 144.301 308.15 145.725C309.864 147.15 311.915 148.086 314.096 148.44C357.66 155.517 394 185.12 394 236.75C394 289.344 351.925 326 300.5 326H97.9167C55.0625 326 20 304.134 20 255.875C20 212.501 54.1976 191.48 85.5902 186.698Z" stroke="black" stroke-width="10" stroke-linejoin="round"/>
<path d="M342 138.001H342.021C363.35 137.909 383.87 146.071 399.23 160.747C412.438 173.376 421.484 190.145 425.647 209.912V209.911C426.194 212.545 427.491 214.962 429.378 216.878C431.269 218.798 433.674 220.133 436.302 220.728L436.327 220.733C460.693 226.114 482 243.236 482 272.5C482 289.965 475.609 303.839 463.844 313.144C453.394 321.401 438.79 326 421.297 326H274.031C254.525 326 236.535 319.322 223.282 307.369C209.565 294.998 202 277.861 202 259C202 239.736 209.059 223.376 222.288 211.396L222.289 211.394C231.793 202.779 244.599 196.542 259.121 193.534L259.122 193.535C261.301 193.087 263.344 192.13 265.082 190.741C266.82 189.352 268.204 187.57 269.116 185.539L269.119 185.532C274.242 174.08 281.915 163.927 291.563 155.84C305.612 144.194 323.018 138.001 342 138.001Z" fill="#116CB5" stroke="black" stroke-width="10"/>
<path d="M179.5 197.001H179.521C193.833 196.939 207.611 202.344 218.026 212.084L218.521 212.552C227.527 221.189 233.726 232.683 236.585 246.298V246.297C237.026 248.423 238.07 250.376 239.591 251.925C241.116 253.478 243.057 254.558 245.178 255.039L245.203 255.045C261.818 258.724 276 270.308 276 289.932C276 301.806 271.684 311.09 263.854 317.301C256.863 322.84 246.996 326 235.008 326H131.922C118.612 326 106.387 321.431 97.4072 313.309C88.1251 304.914 83.0001 293.287 83 280.455C83 267.317 87.7877 256.242 96.7139 248.135L96.7148 248.133C103.142 242.29 111.85 238.02 121.789 235.955L121.79 235.956C123.549 235.594 125.198 234.819 126.6 233.695C128.002 232.572 129.117 231.13 129.852 229.489L129.855 229.482C133.349 221.651 138.58 214.707 145.157 209.177C154.713 201.233 166.554 197.001 179.5 197.001Z" fill="#67C0DA" stroke="black" stroke-width="10"/>
<line x1="139" y1="280" x2="398.5" y2="280" stroke="black" stroke-width="10"/>
<line x1="261" y1="294" x2="261" y2="388.5" stroke="black" stroke-width="10"/>
<circle cx="255.5" cy="400.5" r="30.5" fill="white" stroke="black" stroke-width="10"/>
<path d="M398.5 267C405.272 267 411 272.687 411 280C411 287.313 405.272 293 398.5 293C391.728 293 386 287.313 386 280C386 272.687 391.728 267 398.5 267Z" fill="white" stroke="black" stroke-width="10"/>
<circle cx="255.5" cy="284.5" r="30.5" fill="white" stroke="black" stroke-width="10"/>
</svg>
